<svg xmlns="http://www.w3.org/2000/svg" viewBox="0 0 206.94 228.84"><defs><style>.cls-1{fill:#bec0c1;}.cls-2{fill:#ffaa1a;}.cls-3{fill:#606060;}.cls-4{fill:#383838;}.cls-5{fill:#fff;}</style></defs><g id="Layer_2" data-name="Layer 2"><g id="Home_Page" data-name="Home Page"><path class="cls-1" d="M103.48,228.84A103.47,103.47,0,1,1,206.94,125.38,103.59,103.59,0,0,1,103.48,228.84Zm0-201.89a98.43,98.43,0,1,0,98.42,98.43A98.55,98.55,0,0,0,103.48,27Z"/><path class="cls-2" d="M127.9,24.43A24.43,24.43,0,1,1,103.47,0,24.43,24.43,0,0,1,127.9,24.43Z"/><path d="M110.37,17.78a5.18,5.18,0,0,1-1.23,3.48,6.53,6.53,0,0,1-3.49,2v.09a7,7,0,0,1,4,1.6A4.56,4.56,0,0,1,111,28.37a5.88,5.88,0,0,1-2.28,4.92A10.6,10.6,0,0,1,102.2,35a15.85,15.85,0,0,1-6.31-1.18V29.93a13.86,13.86,0,0,0,2.8,1,11.72,11.72,0,0,0,3,.41,5.89,5.89,0,0,0,3.39-.78,2.87,2.87,0,0,0,1.09-2.5,2.26,2.26,0,0,0-1.26-2.18,9.26,9.26,0,0,0-4-.64H99.25V21.74H101a7.78,7.78,0,0,0,3.71-.67,2.4,2.4,0,0,0,1.17-2.28c0-1.65-1-2.48-3.11-2.48a7,7,0,0,0-2.18.36,10.4,10.4,0,0,0-2.48,1.24l-2.14-3.19a11.93,11.93,0,0,1,7.14-2.15A9.18,9.18,0,0,1,108.41,14,4.4,4.4,0,0,1,110.37,17.78Z"/><polygon class="cls-3" points="129.61 173.16 141.31 161.46 141.31 76.58 65.64 76.58 65.64 173.16 129.61 173.16"/><polygon class="cls-4" points="128.94 172.49 128.94 160.82 140.65 160.79 128.94 172.49"/><rect class="cls-5" x="92.69" y="93.18" width="21.46" height="8.22"/><path class="cls-5" d="M115.46,102.71H91.38V91.86h24.08ZM94,100.07h18.82V94.5H94Z"/><rect class="cls-5" x="83.3" y="118.77" width="14.21" height="6.89"/><path class="cls-5" d="M98.83,127H82v-9.53H98.83Zm-14.22-2.64H96.2v-4.25H84.61Z"/><rect class="cls-5" x="78.41" y="141.2" width="10" height="6.89"/><path class="cls-5" d="M89.72,149.4H77.1v-9.51H89.72Zm-10-2.63h7.36v-4.25H79.73Z"/><rect class="cls-5" x="98.34" y="141.2" width="9.99" height="6.89"/><path class="cls-5" d="M109.64,149.4H97v-9.51h12.62Zm-10-2.63H107v-4.25H99.65Z"/><rect class="cls-5" x="118.26" y="141.2" width="10" height="6.89"/><path class="cls-5" d="M129.57,149.41H116.94v-9.53h12.63Zm-10-2.65h7.37v-4.24h-7.37Z"/><rect class="cls-5" x="109.34" y="118.77" width="14.1" height="6.89"/><path class="cls-5" d="M124.76,127H108v-9.52h16.73Zm-14.1-2.63h11.47v-4.26H110.66Z"/><polygon class="cls-5" points="117.71 119.15 115.08 119.15 115.08 112.31 91.73 112.31 91.73 119.15 89.09 119.15 89.09 109.67 117.71 109.67 117.71 119.15"/><rect class="cls-5" x="102.13" y="102.45" width="2.63" height="8.86"/><rect class="cls-5" x="89.09" y="124.33" width="2.63" height="11.22"/><polygon class="cls-5" points="124.57 141.69 121.94 141.69 121.94 136.19 84.73 136.19 84.73 141.69 82.1 141.69 82.1 133.55 124.57 133.55 124.57 141.69"/><rect class="cls-5" x="102.02" y="133.55" width="2.63" height="8.14"/></g></g></svg>