<svg xmlns="http://www.w3.org/2000/svg" viewBox="0 0 206.93 228.84"><defs><style>.cls-1{fill:#bec0c1;}.cls-2{fill:#ffaa1a;}.cls-3{fill:#383838;}.cls-4{fill:#606060;}</style></defs><g id="Layer_2" data-name="Layer 2"><g id="Home_Page" data-name="Home Page"><path class="cls-1" d="M103.47,228.84A103.47,103.47,0,1,1,206.93,125.38,103.58,103.58,0,0,1,103.47,228.84Zm0-201.89a98.43,98.43,0,1,0,98.42,98.43A98.54,98.54,0,0,0,103.47,27Z"/><path class="cls-2" d="M127.9,24.43A24.44,24.44,0,1,1,103.46,0,24.44,24.44,0,0,1,127.9,24.43Z"/><path d="M103.9,20.78a7,7,0,0,1,5,1.78,6.39,6.39,0,0,1,1.88,4.87,7.12,7.12,0,0,1-2.26,5.64,9.56,9.56,0,0,1-6.46,2,12.64,12.64,0,0,1-5.89-1.18v-4a12.12,12.12,0,0,0,2.75,1,11.93,11.93,0,0,0,3,.4c2.82,0,4.24-1.16,4.24-3.47s-1.47-3.3-4.38-3.3a10.25,10.25,0,0,0-1.75.16,12.11,12.11,0,0,0-1.56.33l-1.83-1,.82-11.13h11.86V16.8h-7.82l-.4,4.29.52-.1A10.37,10.37,0,0,1,103.9,20.78Z"/><rect class="cls-3" x="74.24" y="76.84" width="30.94" height="90.93" transform="translate(-60.21 99.26) rotate(-45)"/><polygon class="cls-4" points="110.92 165.39 146.93 179.52 132.8 143.51 110.92 165.39"/><rect class="cls-4" x="52.15" y="85.99" width="30.95" height="28.45" transform="translate(-51.06 77.17) rotate(-45)"/></g></g></svg>