<svg xmlns="http://www.w3.org/2000/svg" viewBox="0 0 206.94 228.84"><defs><style>.cls-1{fill:#bec0c1;}.cls-2{fill:#ffaa1a;}.cls-3{fill:#383838;}.cls-4{fill:#606060;}.cls-5{fill:#fff;}</style></defs><g id="Layer_2" data-name="Layer 2"><g id="Home_Page" data-name="Home Page"><path class="cls-1" d="M103.48,228.84A103.47,103.47,0,1,1,206.94,125.38,103.59,103.59,0,0,1,103.48,228.84Zm0-201.89a98.43,98.43,0,1,0,98.42,98.43A98.55,98.55,0,0,0,103.48,27Z"/><path class="cls-2" d="M127.9,24.43A24.43,24.43,0,1,1,103.47,0,24.43,24.43,0,0,1,127.9,24.43Z"/><path d="M105.77,34.74h-4.62V22.1l0-2.08.08-2.28c-.77.77-1.3,1.28-1.6,1.52l-2.51,2-2.22-2.78,7-5.6h3.8Z"/><rect class="cls-3" x="54.37" y="96.55" width="95" height="58.3" rx="1.06" transform="translate(227.58 23.83) rotate(90)"/><rect class="cls-4" x="68.68" y="93.08" width="66.39" height="58.3" transform="translate(224.1 20.35) rotate(90)"/><path class="cls-5" d="M107.4,166.19H96.34a2.35,2.35,0,0,1,0-4.69H107.4a2.35,2.35,0,0,1,0,4.69Z"/><path class="cls-5" d="M97.6,135.85A2.34,2.34,0,0,1,96,135.2l-9.1-8.64a2.34,2.34,0,0,1,3.23-3.4L97.26,130l19.06-26.74a2.34,2.34,0,1,1,3.81,2.72L99.5,134.86a2.34,2.34,0,0,1-1.67,1Z"/></g></g></svg>