<svg xmlns="http://www.w3.org/2000/svg" viewBox="0 0 206.94 228.84"><defs><style>.cls-1{fill:#bec0c1;}.cls-2{fill:#ffaa1a;}.cls-3{fill:#383838;}.cls-4{fill:#606060;}.cls-5{fill:#fff;}</style></defs><g id="Layer_2" data-name="Layer 2"><g id="Home_Page" data-name="Home Page"><path class="cls-1" d="M103.48,228.84A103.47,103.47,0,1,1,206.94,125.38,103.59,103.59,0,0,1,103.48,228.84Zm0-201.89a98.43,98.43,0,1,0,98.42,98.43A98.55,98.55,0,0,0,103.48,27Z"/><path class="cls-2" d="M127.9,24.43A24.43,24.43,0,1,1,103.47,0,24.43,24.43,0,0,1,127.9,24.43Z"/><path d="M111.23,34.74H96V31.53L101.44,26c1.62-1.66,2.68-2.82,3.18-3.46a7.53,7.53,0,0,0,1.08-1.79A4.48,4.48,0,0,0,106,19a2.46,2.46,0,0,0-.73-2,2.79,2.79,0,0,0-1.93-.64,5.46,5.46,0,0,0-2.46.58,12.47,12.47,0,0,0-2.51,1.66l-2.51-3a16.44,16.44,0,0,1,2.68-1.95,10,10,0,0,1,2.31-.87,12.17,12.17,0,0,1,2.82-.31,8.26,8.26,0,0,1,3.61.75,5.92,5.92,0,0,1,2.45,2.09,5.72,5.72,0,0,1,.85,3.08,7.47,7.47,0,0,1-.53,2.84A10.77,10.77,0,0,1,108.44,24a39.73,39.73,0,0,1-3.93,4l-2.81,2.65v.21h9.53Z"/><polygon class="cls-3" points="159.53 116.33 159.53 164.01 143.78 164.01 143.8 168.91 143.82 171.54 143.85 177.91 139.89 175.46 138.26 174.46 134.61 172.2 133.84 171.72 129.54 169.06 129.19 168.85 125.12 166.33 123.78 165.5 121.36 164.01 74.34 164.01 74.34 116.33 159.53 116.33"/><polygon class="cls-4" points="36.48 85.61 36.48 133.29 52.23 133.29 52.16 147.19 74.65 133.29 121.67 133.29 121.67 85.61 36.48 85.61"/><path class="cls-5" d="M66,108.63a4.43,4.43,0,1,1-4.43-4.43A4.43,4.43,0,0,1,66,108.63Z"/><path class="cls-5" d="M83.51,108.63a4.44,4.44,0,1,1-4.44-4.43A4.43,4.43,0,0,1,83.51,108.63Z"/><path class="cls-5" d="M100.81,108.63a4.43,4.43,0,1,1-4.43-4.43A4.43,4.43,0,0,1,100.81,108.63Z"/></g></g></svg>