<svg xmlns="http://www.w3.org/2000/svg" viewBox="0 0 206.93 228.84"><defs><style>.cls-1{fill:#bec0c1;}.cls-2{fill:#ffaa1a;}.cls-3{fill:#606060;}.cls-4{fill:#383838;}</style></defs><g id="Layer_2" data-name="Layer 2"><g id="Home_Page" data-name="Home Page"><path class="cls-1" d="M103.47,228.84A103.47,103.47,0,1,1,206.93,125.38,103.58,103.58,0,0,1,103.47,228.84Zm0-201.89a98.43,98.43,0,1,0,98.42,98.43A98.54,98.54,0,0,0,103.47,27Z"/><path class="cls-2" d="M127.9,24.43A24.44,24.44,0,1,1,103.46,0,24.44,24.44,0,0,1,127.9,24.43Z"/><path d="M95.79,25.46q0-6.5,2.74-9.66t8.23-3.17a15,15,0,0,1,2.93.23v3.69a12.15,12.15,0,0,0-2.64-.3,9,9,0,0,0-3.88.72,4.78,4.78,0,0,0-2.25,2.12,9.75,9.75,0,0,0-.88,4h.2A5.05,5.05,0,0,1,105,20.54a5.89,5.89,0,0,1,4.6,1.84,7.37,7.37,0,0,1,1.65,5.08,7.66,7.66,0,0,1-2,5.54,7.26,7.26,0,0,1-5.47,2,7.84,7.84,0,0,1-4.23-1.12,7.36,7.36,0,0,1-2.78-3.27A12.55,12.55,0,0,1,95.79,25.46Zm7.9,5.89a2.75,2.75,0,0,0,2.27-1,4.47,4.47,0,0,0,.8-2.84A3.86,3.86,0,0,0,106,25a2.7,2.7,0,0,0-2.23-.92,3.45,3.45,0,0,0-2.41.92,2.82,2.82,0,0,0-1,2.12,4.87,4.87,0,0,0,.93,3A2.88,2.88,0,0,0,103.69,31.35Z"/><rect class="cls-3" x="71.61" y="95.99" width="59.43" height="59.43" rx="7.75"/><path class="cls-4" d="M101.32,140.87a5.07,5.07,0,0,1-3.7-1.6L72.21,112.36a5.1,5.1,0,1,1,7.42-7l21.64,22.93,50.66-55.15A5.11,5.11,0,0,1,159.45,80l-54.37,59.18a5.11,5.11,0,0,1-3.73,1.65Z"/></g></g></svg>