<svg xmlns="http://www.w3.org/2000/svg" viewBox="0 0 206.93 228.84"><defs><style>.cls-1{fill:#bec0c1;}.cls-2{fill:#ffaa1a;}.cls-3{fill:#606060;}.cls-4{fill:#dedfdf;}.cls-5{fill:#383838;}</style></defs><g id="Layer_2" data-name="Layer 2"><g id="Home_Page" data-name="Home Page"><path class="cls-1" d="M103.47,228.84A103.47,103.47,0,1,1,206.93,125.38,103.58,103.58,0,0,1,103.47,228.84Zm0-201.89a98.43,98.43,0,1,0,98.42,98.43A98.54,98.54,0,0,0,103.47,27Z"/><path class="cls-2" d="M127.89,24.43A24.43,24.43,0,1,1,103.46,0,24.43,24.43,0,0,1,127.89,24.43Z"/><path d="M110.11,30.21h-2.63v4.53H103V30.21H93.63V27l9.59-14.11h4.26V26.62h2.63ZM103,26.62v-3.7c0-.62,0-1.52.08-2.69s.09-1.86.12-2.05H103a16.67,16.67,0,0,1-1.34,2.39l-4,6.05Z"/><path class="cls-3" d="M118.29,141.25V128h-9.74a30.27,30.27,0,0,0-4.07-9.79l6.9-6.89L102,101.94l-6.89,6.9a30.27,30.27,0,0,0-9.79-4.07V95H72.07v9.74a30.27,30.27,0,0,0-9.79,4.07l-6.89-6.9L46,111.32l6.9,6.89A30.27,30.27,0,0,0,48.84,128H39.1v13.25h9.74A30.27,30.27,0,0,0,52.91,151L46,157.93l9.38,9.38,6.89-6.9a30.27,30.27,0,0,0,9.79,4.07v9.74H85.32v-9.74a30.27,30.27,0,0,0,9.79-4.07l6.89,6.9,9.38-9.38-6.9-6.89a30.27,30.27,0,0,0,4.07-9.79Z"/><path class="cls-4" d="M93.51,134.62a14.82,14.82,0,1,1-14.82-14.81A14.81,14.81,0,0,1,93.51,134.62Z"/><path class="cls-5" d="M171.3,106.93l-2.14-9-6.64,1.56a21.25,21.25,0,0,0-4.34-6l3.59-5.81-7.9-4.89-3.59,5.81A21.19,21.19,0,0,0,143,87.37l-1.56-6.64-9,2.13,1.57,6.64a21,21,0,0,0-6,4.35l-5.81-3.59-4.88,7.9,5.81,3.59a21.18,21.18,0,0,0-1.2,7.32l-6.64,1.57,2.14,9,6.63-1.57a21.67,21.67,0,0,0,4.35,6l-3.59,5.81,7.9,4.88L136.2,129a21.17,21.17,0,0,0,7.32,1.19l1.57,6.64,9-2.13-1.57-6.64a21,21,0,0,0,6-4.35l5.81,3.6,4.88-7.9-5.81-3.59a21.47,21.47,0,0,0,1.2-7.33Z"/><path class="cls-4" d="M153.34,106.4a10.38,10.38,0,1,1-12.48-7.71A10.38,10.38,0,0,1,153.34,106.4Z"/></g></g></svg>