<svg xmlns="http://www.w3.org/2000/svg" viewBox="0 0 438.58 166.05"><g id="Layer_2" data-name="Layer 2"><g id="Page_2" data-name="Page 2"><path d="M25.5,119.44c.12-.34.25-.68.37-1a34.11,34.11,0,0,0,2-3.2c.37-.61.59-1.4.95-2,.2-.47.49-1,.76-1.54a13.08,13.08,0,0,1,.58-1.81,8.14,8.14,0,0,1,.54-1.18,7.29,7.29,0,0,0,.29-1.32c.31-.81.6-1.71.82-2.5a2.25,2.25,0,0,1,.27-.58c.19-.89.39-1.77.6-2.55a6.48,6.48,0,0,1,.2-.88A2.35,2.35,0,0,0,33,99.15c.54-.76.12-1.59.36-2.27a8.87,8.87,0,0,0,.12-2.42.34.34,0,0,1,.05-.22,11.55,11.55,0,0,0-.18-3.18,6.25,6.25,0,0,1,0-2,2,2,0,0,0-.22-1.3c-.18-.27-.15-.58-.32-.85-.18-.69-.42-1.25-.57-1.84-.07-.29-.25-.56-.3-.75a2.09,2.09,0,0,0-.58-.69,4.91,4.91,0,0,0-1.4-.58,16.37,16.37,0,0,0-2.1.32,6.55,6.55,0,0,0-2.52,1.16,16.67,16.67,0,0,0-2,1.13c-.2,0-.22.36-.29.49a15.4,15.4,0,0,1-1.56,1.22c-.52.44-1,.89-1.44,1.3a5.29,5.29,0,0,0-.64.79l-1.46,2c-.56.66-1.22,1.35-1.78,2a4.15,4.15,0,0,0-.51.85A12.34,12.34,0,0,0,14,96.65c-.29.91-1.07,1.52-1.34,2.53,0,.22-.49.53-.63.78-.27.59-.44,1.15-.71,1.74a9.37,9.37,0,0,1-.73,1.22c-.34.71-.49,1.37-.75,2a1.42,1.42,0,0,1-.3.49c-.24.27-.61.47-.46,1,.15.17-.17.57-.34.71a1.8,1.8,0,0,0-.58,1.4.54.54,0,0,1-.1.44c-.51,1.27-1,2.45-1.56,3.72-.09.44-.19.88-.29,1.32-.14.24-.26.59-.41.83a9.5,9.5,0,0,1-.46,1.89,2.11,2.11,0,0,1-.39.93A.49.49,0,0,1,5,118c-.32,1.23-.63,2.45-.85,3.65a2.49,2.49,0,0,0-.22.78,3.48,3.48,0,0,1-.17,1c-.07.54-.14,1.08-.24,1.52-.12.76-.27,1.42-.39,2.18a4.41,4.41,0,0,1-.41,1.66,8.61,8.61,0,0,0-.14,1.49c0,.1,0,.2,0,.2-.1,1.27-.22,2.44-.34,3.62,0,.22-.31.39-.36.61a1.13,1.13,0,0,0,0,.51c.49.3.27.66.28,1.08s-.39.93-.25,1.1c.42.83-.31,1.64.18,2.35.15.17-.05.63-.07,1-.07.54-.46,1,.08,1.54-.32.81.39,1.57.17,2.35-.12.34-.29.9-.12,1.17.42.42,0,1,.37,1.47l.08.29a21.59,21.59,0,0,0,.44,2.59,16.34,16.34,0,0,0,.52,2.06,4.54,4.54,0,0,0,.2,1.61,11.87,11.87,0,0,0,1.11,2.32A16.83,16.83,0,0,1,6,158.37c.22.47.45.93.67,1.39.12.08.34.13.39.32A7.13,7.13,0,0,0,8,161.2a5.06,5.06,0,0,0,1.21,1.05,7.11,7.11,0,0,0,1.42,1.1,7.31,7.31,0,0,0,2.13.61c0,.09.09,0,.09,0a3.09,3.09,0,0,0,2.81-.4,9,9,0,0,0,1.35-.86,15.25,15.25,0,0,1,1.78-1.59c.15-.24.44-.32.61-.46l.58-1c.3-.49.69-1,1-1.5.15-.24.39-.51.54-.76.19-.46.46-1,.65-1.51a20.61,20.61,0,0,0,1.44-2.55l1.17-2.79c.34-.71.68-1.42,1-2,.14-.24.21-.37.36-.61.27-1,.76-2,1.12-3a15.85,15.85,0,0,1,.8-1.76c.42-.83.71-1.74,1.1-2.67s.7-1.74,1.09-2.67.63-1.61.93-2.52.6-1.71.92-2.52a.09.09,0,0,0,.07-.12c1-.79.61-2.13,1.41-3.06a3.56,3.56,0,0,0,.73-2.06c0-.93.93-1.27.93-2.1a7.68,7.68,0,0,1,.77-2.28c.22-.78.66-1.52,1-2.42-1.42.56-2.76,1-4,1.62a5.84,5.84,0,0,1-1.78.76c-.22-.05-.41.42-.71.5-.76.29-1.51.58-2.17.85l-.1,0c-.37.61-1.07.69-1.61,1a13.33,13.33,0,0,0-1.44.88,1.17,1.17,0,0,0-.47.23,8.49,8.49,0,0,0-.95.76c-.1,0-.07.12-.17.14a10.73,10.73,0,0,0-2.08,1.25,13.43,13.43,0,0,0-1.63.94,4.27,4.27,0,0,1-1.54.49c-.64-.88-.49-1.54.34-2,.44-.32,1-.56,1.44-.88a2.17,2.17,0,0,0,.66-.69,12.82,12.82,0,0,0,3.44-2l.39-.1a3.58,3.58,0,0,0,.93-.44,7.67,7.67,0,0,1,1.39-.66,4.4,4.4,0,0,0,1.71-1.06c.41-.42,1.22-.52,1.78-.76l.81-.52a7.67,7.67,0,0,1,1.39-.66l2.37-.91.2,0c.53-.76,1.46-.79,2.12-1.06a2,2,0,0,0,1.15-1.22,18.57,18.57,0,0,1,.85-2l.88-1.46a1,1,0,0,0,0-.74A1.71,1.71,0,0,1,42,114.66a7.7,7.7,0,0,0,0,1.66c1.61-.61,3.12-1.2,4.76-1.72l0-.1c.29-.07.66-.27,1-.34a4.68,4.68,0,0,0,1.17-.3c1-.34,1.88-.78,2.86-1a1.17,1.17,0,0,1,1.67.83,5.8,5.8,0,0,1,.24.56l-2.34.59a26.87,26.87,0,0,0-2.79.91c-1,.47-2,.81-2.91,1.26s-2.1.73-3.12,1.2a.65.65,0,0,0-.39.52,15.49,15.49,0,0,0-.2,2.13c0,.41.2.78.2,1.19,0,.2-.07.54,0,.74a15.44,15.44,0,0,0,0,3.84,1.05,1.05,0,0,1,0,.19,13.43,13.43,0,0,0-.14,2.74c-.07.54.05,1,0,1.47s-.17,1-.15,1.49a.4.4,0,0,0,0,.32,4.21,4.21,0,0,1,.15,2.25,9.19,9.19,0,0,0,0,1.66,14.59,14.59,0,0,1,0,2c.05.61,0,1.25.05,1.86a12.07,12.07,0,0,0,.1,2.05c0,.2-.12.35-.19.47,0,.73,0,1.46-.1,2.1a14,14,0,0,1,.11,2.06c0,.19,0,.41,0,.61-.35.29-.59.56-1.08.27-.44-.1-.76-1-.76-1.37a26.38,26.38,0,0,0,0-2.81c0-.64-.32-1.27-.1-2.06.29-.49,0-1,0-1.66,0-.42,0-.73,0-1.15s-.05-.61,0-.93a15.33,15.33,0,0,1-.13-2.15c-.07-.29.15-.66.05-1.05,0-1.15.14-2.32.26-3.5,0-.1-.15-.17-.17-.27a.76.76,0,0,1,0-.51,1.84,1.84,0,0,0,.05-1.47c-.1,0-.13-.07,0-.1,0-.83.09-1.68.09-2.52a16.58,16.58,0,0,0,.1-2.1,18.79,18.79,0,0,1,0-2.49,18.81,18.81,0,0,0-.06-2.69c0-.1-.12-.08-.14-.17a3.59,3.59,0,0,0-.52.44,10.09,10.09,0,0,0-.55,1.49,7.46,7.46,0,0,1-.56,1.08c-.27.59-.42,1.25-.68,1.83a6.11,6.11,0,0,1-.49,1,7.27,7.27,0,0,0-.88,2.3c-.31.81-.58,1.4-.75,2-.39.93-.78,1.86-1.19,2.69l-.15.25c-.07,1.37-1,2.32-1.26,3.64A26.66,26.66,0,0,1,31.59,139c-.44,1.15-.85,2.4-1.29,3.55a6.46,6.46,0,0,1-.78,1.44c-.12.34-.32.81-.44,1.15-.26.59-.53,1.18-.8,1.76-.32.81-.56,1.5-1,2.33s-.71,1.74-1.12,2.57l-.1,0c-.07,1-.73,1.63-1,2.54a4.8,4.8,0,0,1-.86,1.15c-.12.34-.33.71-.46,1.05a2.42,2.42,0,0,1-.61,1.3c-.63.79-1,1.62-1.58,2.38a2.15,2.15,0,0,1-.49.54c-.17.14-.34.29-.31.39a2.52,2.52,0,0,1-1,1.49A14.64,14.64,0,0,1,16,165.64c-.27.17-.71.07-1,.05-.1,0-.32,0-.42,0-.51.44-1.19.2-1.78.34a1.49,1.49,0,0,1-.88-.19c-.71-.34-1.76-.39-2.35-1.07-.17-.27-.56-.17-.81-.32-.76-.53-1.18-1.36-2-1.78-.12-.07-.19-.36-.32-.43a3.87,3.87,0,0,0-.71-.76.76.76,0,0,1-.29-.34,2.46,2.46,0,0,0-.74-1.27,3.85,3.85,0,0,1-.86-1.35,14.29,14.29,0,0,0-.93-2.05,7.66,7.66,0,0,1-.62-2c-.22-.46-.46-1-.71-1.58s-.15-1-.27-1.5A5.76,5.76,0,0,1,1,150c-.22-.88-.35-1.78-.54-2.57,0-.22.12-.34.17-.56-.13-.07-.18-.27-.27-.24,0-.42.14-.66.07-1-.13-.9-.25-1.81-.4-2.81a6.39,6.39,0,0,0,.09-2.1,9.6,9.6,0,0,1,.1-2.52c-.08-.71,0-1.34-.11-2.05a2,2,0,0,1,0-.84c.07-.53.27-1,.34-1.54,0-.09-.08-.29-.1-.39s-.2-.36-.12-.49a8,8,0,0,0,.31-2.05c0-.2.12-.34.17-.56a1.44,1.44,0,0,0,0-.64c0-.32.07-.54.09-.86.2-.88,0-1.76.49-2.61a2.64,2.64,0,0,0,.17-1.4,3.06,3.06,0,0,1,.43-2A2.12,2.12,0,0,0,2,121.53a1.64,1.64,0,0,1,.52-.44c-.15-.17-.27-.25-.32-.44s.17-.15.24-.27a12,12,0,0,1,.49-2.21c0-.22.19-.46.24-.68a1.25,1.25,0,0,0,.24-.69c0-.51-.07-1.12.46-1.46.1,0,.08-.13.17-.15,0-.51.08-1,.07-1.37a2.35,2.35,0,0,1,.17-.56A5.53,5.53,0,0,0,5.16,111c.29-.9.68-1.83,1.07-2.76.17-.56.44-1.15.61-1.71s.53-1.18.8-1.77a6.22,6.22,0,0,1,.9-1.78c.22-.37.41-.84.63-1.2s.39-.52.32-.81.1-.44.27-.59c.63-.37.66-1.1,1.05-1.62a9.79,9.79,0,0,0,.6-1.29l1.1-1.84c.15-.24.39-.51.54-.76a6.34,6.34,0,0,1,.58-1l1.83-2.64a15.56,15.56,0,0,1,1-1.3c.52-.44,1.1-1,1.69-1.57.27-.17.26-.59.51-.86a9.21,9.21,0,0,1,2.56-2.2.1.1,0,0,0,.07-.13c.54-.76,1.49-1.1,2.18-1.69.26-.17.41-.42.61-.47.34-.29.85-.32,1.19-.61a5.9,5.9,0,0,1,1.79-.76c.75-.3,1.49-.69,2.25-.15a1.82,1.82,0,0,1,2-.08,1.71,1.71,0,0,1,.59.27,1.54,1.54,0,0,1,1.05.87c.08.3.32.44.5.71s.41.42.51.81a6,6,0,0,1,.66,1.81A10.17,10.17,0,0,1,35,88.34c0,.32.15.59.12.9a13.73,13.73,0,0,1,.22,2.13c.08,1.13.06,2.28,0,3.42s-.19,2.13-.34,3.21c-.05.22,0,.51,0,.83-.12.76-.26,1.42-.38,2.18l-.51,1.69c-.08.12,0,.31-.1.44a1,1,0,0,1,0,.83c-.24,1.1-.6,2.13-.94,3.25-.22.79-.51,1.69-.8,2.6a3,3,0,0,1-.34.71c-.17.56-.44,1.15-.61,1.71l-.95,2c-.27.59-.54,1.17-.8,1.76s-.59,1-.88,1.47-.49,1-.71,1.32a3.31,3.31,0,0,1-1,.88c-.17.15-.39.1-.69.18A3.35,3.35,0,0,1,25.5,119.44Z"/><path d="M69.05,106.58a1.21,1.21,0,0,1-.59,1.39c-.34.3-.58.57-.92.86-.64.37-1.37.76-2.1,1.16-.27.17-.42.41-.69.59a3.64,3.64,0,0,0-1.27.73c-.17.15-.59.15-1,.25,0,0-.14.24-.24.27a1,1,0,0,1-.46.22,9,9,0,0,0-1.62.61,8.06,8.06,0,0,1-.07,1.79c-.33,1.54-.77,3.11-1.21,4.67,0,.22-.32.4-.56.66-.29.49-.63,1.2-1.32,1.38-.22,0-.46-.2-.56-.17-.58.14-.88-.2-1.2-.64a6.79,6.79,0,0,1-.79-2.71,21.4,21.4,0,0,0-.22-2.54c0-.2.12-.34.17-.56,0-.74.14-1.5.19-2.13-.57-.59-1.47-.88-1.28-1.76.05-.22-.1-.39-.15-.59s-.1-.39,0-.51a4.51,4.51,0,0,1,2-2,1.46,1.46,0,0,1,1.54-.08A18.62,18.62,0,0,1,59.05,109a6.11,6.11,0,0,1,1,1.41l.88-.22c.1,0,.17-.14.37-.19.46-.23.9-.54,1.46-.79.27-.17.59-.15.76-.3l1.39-.66a7.37,7.37,0,0,0,.78-.61,15.34,15.34,0,0,0,1.79-1.18A1.18,1.18,0,0,1,69.05,106.58Zm-11,4c-.34-1-1.52-1.49-2.94-1.34,0,.19.2.36.25.56a1.63,1.63,0,0,0-.14.66c.36-.2.66-.27.92-.44C56.63,110.54,57.1,111.15,58,110.62Zm.35,2.19c-.54-.07-1.17-.11-1.81-.16a19.41,19.41,0,0,0-.06,5.94c.1,0,.22,0,.32,0A13.36,13.36,0,0,0,58.35,112.81Z"/><path d="M78.05,97.34c.26-1,.63-2,.89-3,.49-1.37.9-2.61,1.27-4.06.14-.66.17-1.39.29-2.15.12-1.18.21-2.45.43-3.65a6.79,6.79,0,0,1,.73-1.64,1,1,0,0,1-.42-.41c.44-1.15.75-2.37,1.21-3.84.4-.1,1-.35,1.45-.47s.78.22.73.85-.17,1.4-.31,2.06a20.57,20.57,0,0,1-.73,3.72c-.24.68,0,1.76-.9,2.2a3.57,3.57,0,0,1-.28,2.15,4.42,4.42,0,0,0-.2,2.13,1.69,1.69,0,0,1,.08.71c-.39.51-.17,1-.24,1.52,0,.93-.17,1.81-.17,2.64l-.06,2.2a9.48,9.48,0,0,1-.19,3,1.48,1.48,0,0,0,.12,1.32,1.68,1.68,0,0,1,.08.71c-.37,1,0,2.08-.27,3.08a2.3,2.3,0,0,0,.2.78c0,.74,0,1.47-.07,2.2s.1,1.64.11,2.47a18.81,18.81,0,0,0,.08,2.38,4.17,4.17,0,0,0,.07,1.12c0,.61.18,1.1.23,1.71s0,1.35.07,2a24.43,24.43,0,0,0,.48,2.69c.14.58-.17,1.39.39,2,.15.17-.12.75-.19,1.29-.69-.24-1.15-.43-1.62-.63-.27-1.08-.52-2-.79-3.13-.07-.71-.15-1.42-.22-2.12,0-.1.14-.25.22-.37-.54-.49-.37-1-.42-1.66a11.46,11.46,0,0,0-.06-1.86c-.05-.61-.12-1.32-.17-1.93a4.22,4.22,0,0,0-.08-1.13,23,23,0,0,0,.07-2.62l-.12-.48c0-.2,0-.42,0-.62a8.52,8.52,0,0,0,.11-1.58c0-.64,0-1.35,0-2.08.1-.44-.22-.88-.13-1.32a2.89,2.89,0,0,0,.17-1.4,2.66,2.66,0,0,0-.08-1.54c-.19-.36,0-.73,0-1,0-.1,0-.2-.12-.49-.39,1.35-.7,2.57-1,3.7a35.19,35.19,0,0,0-1,3.67,19.18,19.18,0,0,0-.7,2.15c-.22.78-.66,1.52-.85,2.4a15.81,15.81,0,0,1-1.78,4.92,19.48,19.48,0,0,0-1.12,1.74c-.92,1.27-2.34,1-3.08-.27a2.12,2.12,0,0,1-.57-1.83c-.61-.36.12-1.17-.42-1.66a.83.83,0,0,1,.1-.44c.37-.61,0-1.35.12-2a4.66,4.66,0,0,1,.43-1.15,2.38,2.38,0,0,1,.1-1.68L71,105.35c.08-.12.25-.27.32-.39.12-.34.71-.49.46-1,.73-.4.85-1.57,2-1.74.3-.08.64-.37,1-.35a1.41,1.41,0,0,1,1.39.59c.05.19.27.24.42.41C77.08,100.91,77.56,99.12,78.05,97.34Zm-4.12,7.17a1.8,1.8,0,0,0-.61.89c-.22.36-.34.71-.56,1.07a9.49,9.49,0,0,0-1,3.28c0,.22,0,.61-.12.76a6.39,6.39,0,0,0-.34,2.79,3.32,3.32,0,0,0,.15,1c.17.69-.24,1.52.71,2,.25-.68.59-1.39.83-2.08a10,10,0,0,0,.66-1.93c.14-.66.63-1.2.68-1.84a19.69,19.69,0,0,1,.58-2.22c.12-.76.75-1.54.73-2.47a6,6,0,0,1,.19-1.3C74.71,103.9,74.69,103.8,73.93,104.51Z"/><path d="M151.71,89.66a2.17,2.17,0,0,1-.49.54,1.3,1.3,0,0,0-.88.64c-.05.22-.46.22-.73.39l-2.12,1.47c-.61.47-1.15.82-1.66,1.25-1,.67-1.86,1.31-2.81,2.07-1.12.9-2.25,1.81-3.4,2.62a4.83,4.83,0,0,0-1.41,1.4c-.1,0-.2,0-.17.15a31,31,0,0,0-3.17,2.67c-.1,0-.08.12-.18.14.57.17,1.06.47,1.62.64a8,8,0,0,1,2.69,1.19c.74.44,1.69.51,2.43,1a17.83,17.83,0,0,1,2.72,2.12c.27.24.41.83.68,1.07a6.44,6.44,0,0,1,1,1.61,5.32,5.32,0,0,1,.23,1.71c.12.49.12.91.24,1.4a.37.37,0,0,1,0,.32c-.14.66-.31,1.22-.46,1.88l-.07.12c.2.78-.29,1.32-.44,2-.05.22-.29.49-.34.7-.66,1.11-1.22,2.19-1.78,3.26a9.51,9.51,0,0,1-1.24,1.67,16,16,0,0,0-1.27,1.57c-.51.85-1.29,1.47-1.83,2.22a30.1,30.1,0,0,1-3.27,3.12c-.58.56-1.17,1.13-1.85,1.72a6.13,6.13,0,0,1-1.22.93,11.46,11.46,0,0,0-1.73,1.37,7.16,7.16,0,0,1-2,1.23c-.08.12-.2.05-.27.17a16.92,16.92,0,0,1-3.44,2c-.08.13-.18.15-.37.2a4,4,0,0,0-2,.91,2.59,2.59,0,0,1-.87.22,7.7,7.7,0,0,0-1.57.4c-1.15.39-2.44.2-3.52.47-.71.07-1.22-.32-1.88,0-.1,0-.15-.17-.25-.14a6.61,6.61,0,0,0-1.27-.51,5,5,0,0,1-.86-.51c-.1,0-.19,0-.22-.05a17.07,17.07,0,0,1-1.3-1.44,4.56,4.56,0,0,1-.79-3.55,20.61,20.61,0,0,1,.63-3.27,13.46,13.46,0,0,1,.9-2.21c.24-.68.58-1.39.83-2.08a1.76,1.76,0,0,1,.56-.66.09.09,0,0,0,.07-.12c.39-.52.56-1.08,1-1.59.12-.35.37-.62.49-1,.44-.73.78-1.44,1.24-2.08a11.3,11.3,0,0,1,1.34-1.69,5.29,5.29,0,0,1,.64-.79,14.46,14.46,0,0,1,1-1.49c.07-.12.15-.24.24-.27a3.77,3.77,0,0,0,1.1-1.42c.12-.34.49-.54.73-.81.49-.54,1-1.18,1.42-1.81s1.09-1,1.58-1.55c.17-.14.3-.49.56-.66l1.76-1.69c.17-.15.22-.37.39-.51.42-.42.73-.81,1.15-1.23.07-.12.14-.24.24-.27.25-.27.59-.56.93-.86s.49-.54.76-.71c.31-.39.65-.68,1-1.07-.15-.18-.22-.47-.68-.25l-.22-.05c-.59-.68-1.35-.39-2-.63a13.11,13.11,0,0,1-1.9-.56c.09,0,.07-.12.07-.12-.2,0-.37.2-.56.25a10.94,10.94,0,0,0-2.06-.73c-.66-.15-1.49-.14-2.25-.27-.1,0-.15-.17-.34-.12a3.73,3.73,0,0,0-1.18-.12,12,12,0,0,0-1.22-.31,6.46,6.46,0,0,0-2-.44,6.38,6.38,0,0,1-1.84-.26,10.57,10.57,0,0,1-1.66-.41c-.1,0-.24-.15-.44-.1l.15-.25c-.18.15-.27.18-.25.27a5.6,5.6,0,0,0-1,0,.34.34,0,0,1-.22,0c-.69-.24-1.44-.36-2.13-.61-.22,0-.46-.19-.68-.24-.76-.12-1.57-.44-2.45-.63-.44-.1-.91-.71-1.35-.8-1.3-.2-2-1.17-2.86-1.88a5.42,5.42,0,0,1-1.48-2.54,4.17,4.17,0,0,1-.44-2.18,1.31,1.31,0,0,0-.22-.46c.17-.15.65-.27.14-.66-.12-.07-.1-.39,0-.61.15-.66.27-1.42.41-2.08.07-.12,0-.22.12-.34.29-.91.78-1.86,1-2.87a21.19,21.19,0,0,1,1.7-4,8.57,8.57,0,0,0,.8-1.77c.18-.14.35-.29.52-.44.44-.73.75-1.54,1.19-2.27a9.59,9.59,0,0,0,1-1.18,31.7,31.7,0,0,1,2.71-3.7c.49-.54.75-1.13,1.14-1.64.15-.25.34-.29.52-.44a5.06,5.06,0,0,0,.65-.69,21.22,21.22,0,0,1,2.52-2.82c.66-.68,1.34-1.27,2-2,.87-.63,1.73-1.37,2.61-2,.68-.59,1.54-.91,2.12-1.47a3.32,3.32,0,0,1,1.79-.76c.19-.05.26-.17.46-.22.34-.3.64-.79,1-.79,1.15,0,2-.62,3.15-.69a4.75,4.75,0,0,1,1.76,0,3.19,3.19,0,0,1,2.18.8c.15.17.54.07.79.22.61.37.78,1,1.15,1.68a6.76,6.76,0,0,1,.69,2.74,2.49,2.49,0,0,1-.49,1.37,8.47,8.47,0,0,1-1.19-.22c-.37-1-.06-2.27-.62-3.27a3.8,3.8,0,0,0-2.7-1.19c-.12-.08-.31,0-.54-.07a2.83,2.83,0,0,0-.92,0l0,.1a2.54,2.54,0,0,0-.71-.34l0,.1c-1.1.59-2.3.78-3.52,1.3-.1,0,0,.22-.12.34-.69.59-1.71.64-2.45,1.45-.24.27-.73.4-.9.54-.44.32-.68.59-1,.76-.42.42-.93.86-1.34,1.28a16.48,16.48,0,0,0-1.71,1.47c-.66.68-1.22,1.35-1.88,2a11,11,0,0,0-.9,1c-.25.27-.39.51-.57.66s0,.22-.14.24c-.39.1-.64.37-.54.76-.07.13-.14.25-.24.27-.63.79-1.29,1.47-2,2.16a2.38,2.38,0,0,0-.68,1,19,19,0,0,1-2.49,3.74,6.8,6.8,0,0,0-.78,1.86l-1,1.59c-.27.59-.51,1.28-.78,1.86a12,12,0,0,0-.65,1.52c-.13.35-.44.74-.56,1.08-.15.66-.27,1.42-.41,2.08a4.87,4.87,0,0,0-.22,2.44c0,.94-.14,1.91.47,2.69a6.93,6.93,0,0,0,1.77,2.06c.14.17.46.19.71.34s.63.46,1,.58c1,.36,2,.75,3,1.12a.76.76,0,0,0,.44.09c.39-.09.69-.17,1,.17,0,.1.25.15.35.12a1.59,1.59,0,0,1,1.44.37c.12.07.37.22.44.1.78-.2,1.52.24,2.25.26a10.31,10.31,0,0,0,1.1.24,10.85,10.85,0,0,0,1.66.41,3.18,3.18,0,0,0,1,.07c.66.15,1.32.3,2.08.42a12.25,12.25,0,0,0,1.73.29.3.3,0,0,0,.22,0,5.4,5.4,0,0,0,2.33.56,12.47,12.47,0,0,1,2.54.61,7.89,7.89,0,0,1,2.23.58.1.1,0,0,0,.12.07c.66-.27,1.3.19,1.89.46.93.39,1.44-.05,2-.52a11.19,11.19,0,0,0,1.27-1.15c.83-.83,1.78-1.59,2.71-2.45l2.34-1.84a11.13,11.13,0,0,0,1.69-1.15c.34-.3.65-.69,1-1,1.14-.8,2.41-1.54,3.54-2.45.41-.42,1-.66,1.49-1.1a1.63,1.63,0,0,1,1.1-.59.11.11,0,0,1-.13-.07c.54-.35.95-.76,1.49-1.11a2.71,2.71,0,0,0,.83-.42.68.68,0,0,1,.61,0l0,.1A1.23,1.23,0,0,1,151.71,89.66Zm-18.8,14.94c-.75.71-1.51,1.42-2.36,2.16-.08.12-.25.27-.32.39a19.39,19.39,0,0,1-1.46,1.62,10.57,10.57,0,0,0-2.39,2.47c-.22.37-.62.47-1,.88l.05.2c-.25.27-.51.44-.76.71-.39.51-.88,1-1.27,1.57-.7.9-1.56,1.64-2.17,2.52-.73,1.23-1.63,2.18-2.39,3.31-1,1.3-1.92,2.67-2.82,4a5.05,5.05,0,0,0-1,1.49c-.29,1.33-1.22,2.18-1.53,3.41-.1.44-.51.85-.63,1.2a4.8,4.8,0,0,1-.49,2.2.78.78,0,0,0-.07.54,5.37,5.37,0,0,0,.42,2.49c.39.73.57,1.42,1.47,1.71.13.07.27.24.4.32a.71.71,0,0,0,.43.09,11.08,11.08,0,0,0,1.74.29,1.42,1.42,0,0,0,.64,0,8.31,8.31,0,0,0,1.51-.17c1.37-.35,2.84-.72,4.18-1.16a27.46,27.46,0,0,0,2.76-1.43c.27-.17.66-.27.93-.44.59-.57,1.49-.69,1.93-1.42l.2,0a16,16,0,0,0,2.07-1.26,9.38,9.38,0,0,1,1.76-1.69c.54-.34.88-1,1.41-1.39,1.54-.91,2.52-2.41,3.66-3.63a36.46,36.46,0,0,0,2.56-3c.47-.64,1-1.2,1.52-1.84a1.76,1.76,0,0,0,.48-.95,6.46,6.46,0,0,1,.47-1.05c.51-1.28,1-2.55,1.55-3.73a3.15,3.15,0,0,1-.15-1,4.37,4.37,0,0,0,.05-1.47,25.49,25.49,0,0,0-.89-2.68.28.28,0,0,0-.14-.17,13.16,13.16,0,0,0-2.26-1.93c-1-.59-1.81-1.41-3-1.54-.12-.48-.63,0-.9-.29a4.57,4.57,0,0,0-1.27-.51C134.92,105.13,133.92,104.87,132.91,104.6Z"/><path d="M177.09,81.07a2.33,2.33,0,0,1-2,1.86,14.06,14.06,0,0,0-1.81.67,20.89,20.89,0,0,0-2.42.71l-2,.81-1.1.59a3.8,3.8,0,0,0-1.44.89c-.36.19-.44.73-.53,1.17-.3.91-.46,1.89-.76,2.79a9.88,9.88,0,0,1-.6,1.3c-.64.78-.9,1.79-1.81,2.33a1.82,1.82,0,0,1-1.1.59,4.44,4.44,0,0,0-1,.46c-1.3.23-1.77-.8-2.31-1.7,0-.1,0-.32,0-.42-.34-.54.07-1,.27-1.42a12,12,0,0,1,1-2.13,4.63,4.63,0,0,1,1-1.3.35.35,0,0,0,.27-.17,8.39,8.39,0,0,1,2.93-2.4,1.61,1.61,0,0,0,.73-1.64,5.7,5.7,0,0,1,0-1c-.13-.91-.15-1.84-.28-2.74-.12-.49-.34-1-.44-1.35-1,0-1.25.84-1.76,1.28a5.25,5.25,0,0,0-1,2.13c-.12.34-.37.61-.41.83a12.69,12.69,0,0,0-.61,1.72,12.57,12.57,0,0,0-.61,1.71,2.42,2.42,0,0,1-.22.78,2.9,2.9,0,0,1-.19.88c0,.32-.27.59-.29.91-.2.88-.46,1.88-.66,2.76-.09.44-.19.88-.29,1.32a11.18,11.18,0,0,1-.19,2.13.78.78,0,0,1-.22.37,9.8,9.8,0,0,0-.07,1.37,23,23,0,0,0-.21,2.44c-.1,0,0,.1-.07.13-.69,1-.05,2.3-.61,3.37.35.54-.22,1.2.13,1.74.17.27,0,.73-.05,1a12,12,0,0,0-.17,1.4,9.28,9.28,0,0,0,.06,1.44c0,.32-.08.54-.1.85a.67.67,0,0,0,0,.42.77.77,0,0,1,0,.51c.07.3,0,.52.1.81s-.22.78,0,1.15a3.64,3.64,0,0,1,0,1.15,10.85,10.85,0,0,0,.16,3.08,2.87,2.87,0,0,1-.17,2.23c-.64,0-1.27-.1-1.81-.17-.15-1-.27-1.91-.42-2.91a.36.36,0,0,1,0-.32c.22-.36.22-.78-.12-.9-.1-.81-.18-1.52-.23-2.13,0-.42-.12-.9-.12-1.32,0-.73-.08-1.54-.06-2.27a13.63,13.63,0,0,1-.08-2.79c-.07-.29.17-.56.15-.66a3.41,3.41,0,0,0-.13-.91,6.86,6.86,0,0,0-.27-1.49c.07-.12,0-.19.05-.22.39-.93,0-1.76,0-2.71a12,12,0,0,0,.1-2.11c0-.73-.13-1.32-.08-2-.05-.2.1-.44.05-.64s.22-.36.07-.54a11.2,11.2,0,0,1,0-3.22,3.52,3.52,0,0,0-.54-1.74c0-.1-.17-.27-.19-.37a25.2,25.2,0,0,0,.06-3c0-.22-.12-.49-.07-.71a5.27,5.27,0,0,0,.26-1.42,5.14,5.14,0,0,0,0-1.24c.19-.88.27-1.84.46-2.72a4.7,4.7,0,0,1,.36-1,3.15,3.15,0,0,1,.74-.39,6.2,6.2,0,0,1,.78.22,2.36,2.36,0,0,1,.25,1.39c-.05.22.17.69.17,1.1a19.91,19.91,0,0,0-.12,2.42l-.06,2.2c0,.2.07.3,0,.42l0,.2c0,.19.08.29.1.39l-.14.24c0,.42.1.81.1,1.22a7.62,7.62,0,0,0,0,2.08,14.16,14.16,0,0,1-.19,2.13c0,.22.13.49.2.78a.36.36,0,0,0-.17.15c0,.22-.17.56-.22.78a2.44,2.44,0,0,0,.3,1.18c.07-.13.05-.22,0-.42A16.51,16.51,0,0,1,156,93a9.16,9.16,0,0,0,.43-2.39,3.66,3.66,0,0,1,.46-1.47,3.88,3.88,0,0,1,.17-1,5.06,5.06,0,0,1,.24-1.1,17,17,0,0,1,.83-2.5,23.45,23.45,0,0,1,1.14-2.89c.42-.83.83-1.66,1.24-2.49a2.4,2.4,0,0,1,.93-.86c.51-.44.78-1,1.59-1.13s1.32-.12,1.91.56a5.06,5.06,0,0,1,1.2,2.71c.13.49.56,1,.08,1.54.54.49-.15,1.08.2,1.61.14.18,0,.32,0,.64.56-.25,1.12-.49,1.59-.71s.66-.27,1-.37c1.07-.27,2.05-.93,3.13-1.21.48-.12.85-.32,1.34-.44l3.23-.81A2,2,0,0,1,177.09,81.07ZM163.85,88c-.29.07-.41,0-.49.12-.34.3-.68.59-1.09,1a2.86,2.86,0,0,0-.69.59,19.66,19.66,0,0,1-1.09,1.83c-.37.61-.56,1.08-.12,1.59l.59-.15a6.13,6.13,0,0,0,1.39-1.07,5.27,5.27,0,0,0,.87-1.89A13.23,13.23,0,0,0,163.85,88Z"/><path d="M194,76.7c0,.1.17.27.1.39s.1.4,0,.42c-.9,1.37-1.8,2.74-2.8,4.14a34.24,34.24,0,0,1-2.17,2.94,23.09,23.09,0,0,0-2.27,2.13,8.62,8.62,0,0,1-3.25,2.38c-.85.32-1.69.74-2.54.23-.13-.08-.3.07-.56.24a9,9,0,0,1-1.94-1.48,9,9,0,0,1-.88-2.28s.17-.14.14-.24a4.88,4.88,0,0,1-.1-2.06,11.12,11.12,0,0,1,.31-2.05,10.6,10.6,0,0,1,.83-2.08,6.33,6.33,0,0,1,2.68-3,3,3,0,0,1,.88-.22,2.63,2.63,0,0,1,.73,0,2.93,2.93,0,0,1,1.45,2.86c.57.59-.14,1.08-.09,1.69a.55.55,0,0,1-.17.56,5.38,5.38,0,0,0-1.44,2.13,2.79,2.79,0,0,1-2.68,1.31c-.22-.05-.42,0-.64-.05.15.59.2,1.2.32,1.69a2.09,2.09,0,0,0,2.57,1.11,9.19,9.19,0,0,0,1.66-.83,13.31,13.31,0,0,0,1.44-1.3c.1,0,.08-.12.17-.15.76-.29,1.1-1,1.56-1.64A28.63,28.63,0,0,1,189.66,81a4,4,0,0,0,.51-.86,8.22,8.22,0,0,0,.78-1,5,5,0,0,0,1-1.49l1.17-2C193.68,76,194,76.07,194,76.7Zm-13.93,6.22c1.71-.22,2.23-1.49,2.61-2.84a2,2,0,0,0-.22-2.13C180.66,79.13,179.44,81.72,180.05,82.92Z"/><path d="M210.6,72.51c0,.1.17.27.1.39s.09.39,0,.41c-.91,1.38-1.81,2.75-2.81,4.14a29.29,29.29,0,0,1-2.17,2.94,25.69,25.69,0,0,0-2.27,2.14,8.61,8.61,0,0,1-3.24,2.38c-.86.32-1.69.73-2.54.22-.13-.07-.3.08-.57.25a9.27,9.27,0,0,1-1.93-1.49,9.34,9.34,0,0,1-.89-2.27s.17-.15.15-.25a4.69,4.69,0,0,1-.1-2.05,10.43,10.43,0,0,1,.31-2.06,9.49,9.49,0,0,1,.83-2.08,6.25,6.25,0,0,1,2.68-3A2.71,2.71,0,0,1,199,72a2.64,2.64,0,0,1,.73,0,2.92,2.92,0,0,1,1.45,2.86c.57.58-.14,1.07-.09,1.69a.56.56,0,0,1-.17.56,5.31,5.31,0,0,0-1.44,2.13,2.81,2.81,0,0,1-2.69,1.3c-.22,0-.41,0-.63,0,.14.59.2,1.2.32,1.69a2.1,2.1,0,0,0,2.57,1.12,9.9,9.9,0,0,0,1.66-.84,12.34,12.34,0,0,0,1.44-1.3c.1,0,.07-.12.17-.14.76-.3,1.1-1,1.56-1.65a31.63,31.63,0,0,1,2.37-2.57,5,5,0,0,0,.51-.86,9,9,0,0,0,.78-1,4.91,4.91,0,0,0,1-1.5c.37-.61.74-1.22,1.17-2C210.3,71.75,210.64,71.87,210.6,72.51Zm-13.93,6.22c1.71-.23,2.22-1.5,2.61-2.85a2,2,0,0,0-.22-2.12C197.27,74.94,196.06,77.53,196.67,78.73Z"/><path d="M219.59,61.61c.27-1,.64-2,.9-3a41.6,41.6,0,0,0,1.26-4.06c.15-.66.17-1.4.29-2.15.12-1.18.22-2.45.43-3.65a7,7,0,0,1,.73-1.64,1,1,0,0,1-.41-.41c.44-1.15.75-2.38,1.21-3.85.39-.09.95-.34,1.44-.46s.79.21.74.85-.17,1.39-.31,2.06a22.13,22.13,0,0,1-.73,3.71c-.24.69,0,1.76-.9,2.21a3.51,3.51,0,0,1-.29,2.15,4.43,4.43,0,0,0-.19,2.13,1.85,1.85,0,0,1,.08.71c-.39.51-.17,1-.25,1.51,0,.93-.16,1.81-.16,2.64s-.05,1.47-.07,2.21a9.22,9.22,0,0,1-.19,3,1.52,1.52,0,0,0,.13,1.32,1.66,1.66,0,0,1,.07.71c-.36,1,0,2.07-.26,3.08-.05.22.15.58.2.78,0,.73-.05,1.47-.07,2.2s.1,1.64.1,2.47a20.62,20.62,0,0,0,.08,2.37,4.22,4.22,0,0,0,.08,1.13c.05.61.17,1.1.22,1.71s0,1.34.08,1.95a24,24,0,0,0,.47,2.69c.15.59-.17,1.4.4,2,.14.17-.12.76-.2,1.3-.68-.24-1.15-.44-1.61-.63-.27-1.08-.52-2.06-.79-3.13-.08-.71-.15-1.42-.23-2.13,0-.1.15-.24.22-.37-.54-.48-.37-1-.42-1.66a11.53,11.53,0,0,0,0-1.86c-.05-.61-.12-1.32-.17-1.93a4.63,4.63,0,0,0-.08-1.12,25.69,25.69,0,0,0,.07-2.62c0-.2-.1-.39-.13-.49s0-.41-.05-.61a8.71,8.71,0,0,0,.12-1.59c.05-.63,0-1.34,0-2.08.09-.44-.23-.88-.13-1.32a3,3,0,0,0,.17-1.39,2.75,2.75,0,0,0-.08-1.54c-.19-.37,0-.74.05-1,0-.1-.05-.2-.12-.49-.39,1.34-.71,2.57-1.05,3.69a33.41,33.41,0,0,0-.94,3.67,20.13,20.13,0,0,0-.71,2.16c-.21.78-.65,1.51-.85,2.39A15.61,15.61,0,0,1,215.92,80c-.49.54-.73,1.23-1.12,1.74a1.72,1.72,0,0,1-3.08-.26c-.35-.54-.79-1-.57-1.83-.61-.37.12-1.18-.42-1.66a.74.74,0,0,1,.1-.44c.36-.62,0-1.35.11-2a5.22,5.22,0,0,1,.44-1.15,2.36,2.36,0,0,1,.1-1.69c.36-1,.72-2,1.09-3.08.07-.12.24-.27.32-.39.12-.35.7-.49.46-1.06.73-.39.85-1.56,2-1.74.29-.07.64-.37.95-.34a1.41,1.41,0,0,1,1.4.58c0,.2.27.25.42.42C218.62,65.18,219.11,63.39,219.59,61.61Zm-4.11,7.17a1.78,1.78,0,0,0-.61.88c-.22.37-.34.71-.56,1.08A9.5,9.5,0,0,0,213.26,74c0,.22.05.61-.12.76a6.52,6.52,0,0,0-.33,2.79,3.07,3.07,0,0,0,.15,1c.17.68-.24,1.51.71,2,.24-.68.58-1.39.83-2.08a10,10,0,0,0,.65-1.93c.15-.66.64-1.2.68-1.84a19.23,19.23,0,0,1,.59-2.22c.12-.76.75-1.55.72-2.48a6,6,0,0,1,.2-1.29C216.26,68.17,216.23,68.07,215.48,68.78Z"/><path d="M266.05,49.15s-.1,0-.12-.07A6.23,6.23,0,0,1,266,47.8a.88.88,0,0,1,0-.51c.07-.54.12-1.17.17-1.81s-.06-1-.11-1.64c0-.93.05-1.88.12-2.83s.29-2.16.31-3.31a10.74,10.74,0,0,0-.08-3.62,13,13,0,0,1-.5-1.95c0-.73,0-1.47,0-2.3.09-.44,0-.93,0-1.47a11.4,11.4,0,0,1,.17-1.81c0-.41-.2-.78-.08-1.12,0-1.35.05-2.72.14-4a3.42,3.42,0,0,1,.56-1.07,1.34,1.34,0,0,1,.44.09c1.23.32,1.23.32,1.15,1.69,0,.51.08,1.12.13,1.73a.79.79,0,0,1,0,.52,11.38,11.38,0,0,1,0,1.85c.05.2-.07.54,0,.74a1.81,1.81,0,0,0,.1.8c0,.1.07.3.07.3a4.86,4.86,0,0,0-.12,2.42,14.89,14.89,0,0,1-.09,2.1c.05.61,0,1.15,0,1.76s.27,1.08-.12,1.59c-.17.15,0,.42,0,.74a10.72,10.72,0,0,0-.09,2.52,10,10,0,0,0,0,2c.22.46,0,1.15-.07,1.78a34.33,34.33,0,0,0-.31,3.72,10.76,10.76,0,0,1-.26,2.67c-.05.22.24.56.19.78,0,.83-.12,1.59-.14,2.32s-.09,1.69-.09,2.52c0,.32-.27.59-.29.91-.08.12-.15.24,0,.31.35.54.05,1-.11,1.59l2.05-.51c.1,0,.17-.15.27-.18.78-1,1.65-2.08,2.53-3.13.32-.39.73-.81,1.05-1.2.17-.15.22-.37.39-.52.44-.73.88-1.47,1.34-2.1.22-.37.59-.57.81-.93.48-.54.8-1.35,1.39-1.91s.51-1.28,1.26-1.57c.1,0,.13-.35.2-.47.44-.73.9-1.37,1.36-2s.56-1.07.95-1.59a9.8,9.8,0,0,1,.88-1,4.28,4.28,0,0,0,.41-.83,7.63,7.63,0,0,1,1.49-2.36c.46-.63.76-1.54,1.22-2.17a5.05,5.05,0,0,1,1-1.5,8.38,8.38,0,0,0,.64-1.2,6.76,6.76,0,0,1,1-1.4c.29-.48.36-1,.65-1.51a24.68,24.68,0,0,0,1.66-2.92c.44-.73.66-1.51,1.19-2.27a9.53,9.53,0,0,0,1.22-2.6,20.67,20.67,0,0,0,.8-2.18A13.87,13.87,0,0,1,294,16.83c.12-.34.48-.54.8-.93a3.65,3.65,0,0,0,.81.73l.12.07a21.14,21.14,0,0,1-.55,2.33,25.79,25.79,0,0,1-1,3,11.1,11.1,0,0,1-1,1.91l-.8,1.76a19.52,19.52,0,0,0-1,1.81l-.07.13a4.92,4.92,0,0,1-.86,1.56,6.73,6.73,0,0,1-.53,1.18c-.76,1.12-1.14,2.47-2.12,3.55-.17.14-.1.44-.27.59-.44.73-1,1.49-1.41,2.22s-1,1.82-1.61,2.7c-.37.61-.92,1.27-1.27,2s-.87,1.47-1.21,2.18a.1.1,0,0,0-.08.12c-1,.47-.77,1.86-1.83,2.23-.19.05-.26.59-.41.84a4.69,4.69,0,0,0-.63.78c-.15.24-.17.56-.32.81a17,17,0,0,1-1.27,1.57,5.35,5.35,0,0,0-.58,1,1.27,1.27,0,0,1-.81.93,38.54,38.54,0,0,1-3.46,4.41c.32,0,.44.09.51,0A15.84,15.84,0,0,1,276.68,55a22.71,22.71,0,0,0,2.49-.83c.1,0,.1,0,.22.05,1,.16,1.73-.55,2.66-.57a6.28,6.28,0,0,0,1.35-.45c.68-.17,1.39-.24,2.08-.42l2.64-.66c.68-.18,1.29-.23,2-.4.2-.05.52,0,.69-.17a6.24,6.24,0,0,1,2.66-.57l1-.25c.88-.22,1.81-.25,2.59-.44a1.73,1.73,0,0,1,1-.25,11.92,11.92,0,0,0,1.76-.44c1.3-.23,2.62-.35,3.94-.48a22.61,22.61,0,0,1,2.56-.54c.3-.08.64,0,.83,0,.93,0,1.84-.16,2.67-.16.19,0,.59.27.76.54s.05.61.17,1.1a5,5,0,0,0-1.22.1c-1.13.08-2.35.18-3.45.35a21.6,21.6,0,0,0-3.52.47,22.79,22.79,0,0,1-2.59.45,9,9,0,0,0-2.25.57l-.19,0c-1-.27-1.79.34-2.59.44s-1.47.37-2.28.47-1.51.18-2.2.35c-1.05.37-2.05.52-3,.86-.69.17-1.3.23-1.89.37s-1.14.4-1.63.52l-1.86.47c-.68.17-1.34.44-2,.62-.49.12-1.1.17-1.69.32l-.78.2-.88.22a6.92,6.92,0,0,0-1.44.47l-2.15.54c-.29.07-.56.24-1,.34a3.64,3.64,0,0,0-1.62.62c-.07.12-.17.14-.24.27a1.55,1.55,0,0,1-1,1c-.07.12,0,.32-.1.44-.31.39-.73.81-1,1.2a4.17,4.17,0,0,1-.76.71c-.17.56-.78,1-.22,1.61-.56.67.05,1.45-.41,2.08,0,.1-.05.22,0,.32a6.77,6.77,0,0,1-.22,2.86c0,.32.18.69.05,1,0,.93-.23,1.93-.11,2.84.05.61-.51,1.27-.07,1.78.12.08.05.2.07.3a4.39,4.39,0,0,0-.28,2.56c-.07,1.37-.27,2.67-.34,4,0,.1.18.27.13.49a5.62,5.62,0,0,0-.24,1.52,16.41,16.41,0,0,1-.09,3.76c-.05.64,0,1.25-.05,1.89s-.07,1.37-.09,2.1c.07,1.12-.24,2.35-.14,3.57a4.36,4.36,0,0,1-.29,1.74c-.56-.17-.9-.3-1.47-.46-.14-7.15.39-14.14.74-21.4a2.58,2.58,0,0,1,.33-2,3.21,3.21,0,0,1-.22-2.13,1.37,1.37,0,0,0,0-.73c0-.42.12-.76.12-1.18.12-.75.14-1.49.26-2.25a15,15,0,0,1,.1-1.68,8.36,8.36,0,0,0-.81.51l-.1,0a14.22,14.22,0,0,1-1.39,1.49,3.78,3.78,0,0,1-1.12.91,5.4,5.4,0,0,0-1.54,1.32,2.46,2.46,0,0,1-.78.62c-.73.39-1.24,1.25-2.27,1.3a.7.7,0,0,0,0,.32c-.47.22-.93.44-1.3.63-.53.35-1.19.62-1.73,1a14.09,14.09,0,0,1-3.37,1.06,9.78,9.78,0,0,1-2.91,0,5.49,5.49,0,0,1-2.18-.8,1.68,1.68,0,0,1-.69-1.91c.07-.12,0-.32.1-.44a2.41,2.41,0,0,1,.94-2,38.1,38.1,0,0,1,2.89-2.6A11.4,11.4,0,0,1,250.92,65a9.93,9.93,0,0,0,1.74-1,20.31,20.31,0,0,1,2.15-.95l.19,0,2.13-1.48.66.15,0-.1c.37-.2.71-.49,1.08-.69,1-.34,2-.81,2.93-1.15s2.1-.74,3.15-1.11c.2,0,.27-.17.44-.32a2.06,2.06,0,0,1,0-1.56c.2-.47.39-.93-.12-1.32.71-.91,0-2,.19-3a11.52,11.52,0,0,0,.28-3C265.81,49.42,266,49.27,266.05,49.15Zm-1,11.28c-.95.34-2,.81-2.93,1.15-.27.17-.71.08-1,.25-.9,1-2.37.91-3.42,1.69a11.85,11.85,0,0,1-2.52,1.16c-1.36.76-2.9,1.25-3.95,2.45l-.2.05c-.73,0-1,.57-1.54.91-1.22.93-2.58,1.69-3.17,3.51a7,7,0,0,0,1,.9,3.4,3.4,0,0,0,2.81,0c1-.47,2.13-.64,3.13-1.21a10.86,10.86,0,0,0,1.68-.74,11.42,11.42,0,0,1,2.15-1.37,3.29,3.29,0,0,0,.86-.74c.46-.22.9-.54,1.27-.73l.12.07a2.26,2.26,0,0,1,.39-.52c.22-.36.51-.85.83-.83.59-.15.41-.42.49-.54l2.34-1.84c.2-.46.36-1,1.05-1.2a.21.21,0,0,0,.15-.24c.24-.69.48-1.37.7-2.16C265.17,60.5,265.15,60.4,265.05,60.43Z"/><path d="M324.73,36.94a2.52,2.52,0,0,1-.34.71.91.91,0,0,1-1.25-.42c-.05-.19-.39-.32-.71-.34a4.59,4.59,0,0,0-.95-.07.68.68,0,0,1-.1.44,19.69,19.69,0,0,0-2.73,2.35c-.68,1-1.12,2.16-1.8,3.16a2.61,2.61,0,0,1-.17.57c-.37,1-.83,2.08-1.19,3.11a2.42,2.42,0,0,0-.22.78c-.22,1.2-.44,2.39-.65,3.59-.05.22,0,.42-.05.64s.07.29,0,.42a1.8,1.8,0,0,0-.31,1.64,5.27,5.27,0,0,1-.22,1.19,15.2,15.2,0,0,1-.44,2c0,.31-.36.61-.61.88-.44-.1-.85-.1-1.42-.27-.09-.39-.09-.81-.19-1.2a.83.83,0,0,0-.32-.44,4.94,4.94,0,0,1,.41-.83c-.83-.41-.25-1-.25-1.39s-.05-.61-.1-.81c0-.41.1-.86.1-1.27,0-.73,0-1.47.09-2.1,0-1.15.05-2.3.16-3.48,0-.31.15-.66-.31-.85-.23,0-.3-.34-.45-.51a18.85,18.85,0,0,1,.27-2.67,8,8,0,0,1,.48-1.79l1.08-.27c.71.34.54.91.59,1.52.05.19.19.36.27.66,0,1.34,0,2.81.06,4.35l.09,0c.08-.12.15-.24.22-.36a13.46,13.46,0,0,1,.85-2.82c.44-.73.37-1.86,1.25-2.49.26-1.42,1.73-2.21,2.24-3.48l.09,0a11.87,11.87,0,0,0,1.59-1.13c.2,0,.22-.36.32-.39a4,4,0,0,1,3.2-.49,2.23,2.23,0,0,1,1.3,1.44C324.66,36.64,324.68,36.74,324.73,36.94Z"/><path d="M344.23,38.77c0,.1.17.27.09.39s.1.4,0,.42c-.91,1.37-1.81,2.74-2.81,4.14a30.48,30.48,0,0,1-2.17,2.94,25.59,25.59,0,0,0-2.27,2.13,8.4,8.4,0,0,1-3.24,2.38c-.86.32-1.69.74-2.55.23-.12-.08-.29.07-.56.24a8.67,8.67,0,0,1-1.93-1.48,9.41,9.41,0,0,1-.89-2.28s.17-.14.15-.24a4.88,4.88,0,0,1-.11-2.06,11.11,11.11,0,0,1,.32-2,10,10,0,0,1,.82-2.08,6.35,6.35,0,0,1,2.69-3,2.92,2.92,0,0,1,.88-.22,2.64,2.64,0,0,1,.73,0,2.93,2.93,0,0,1,1.45,2.86c.57.59-.14,1.08-.09,1.69a.54.54,0,0,1-.17.56,5.14,5.14,0,0,0-1.44,2.14,2.81,2.81,0,0,1-2.69,1.3c-.22,0-.41,0-.63,0,.14.59.19,1.2.32,1.69a2.1,2.1,0,0,0,2.57,1.12,9.9,9.9,0,0,0,1.66-.84,13.31,13.31,0,0,0,1.44-1.3c.1,0,.07-.12.17-.15.76-.29,1.1-1,1.56-1.64a28.63,28.63,0,0,1,2.37-2.57,5,5,0,0,0,.51-.86,8.22,8.22,0,0,0,.78-1,5,5,0,0,0,1-1.49l1.17-2C343.93,38,344.27,38.14,344.23,38.77ZM330.3,45c1.71-.22,2.22-1.49,2.61-2.84a2,2,0,0,0-.22-2.13C330.9,41.2,329.69,43.79,330.3,45Z"/><path d="M349.69,34.07a2.71,2.71,0,0,1,1.52,1.07c.2.36.54.49.86.09a.89.89,0,0,1,1.24.42c.3.75.79,1.46.4,2.39-.12.35.22.88.25,1.4a6.29,6.29,0,0,1,.25,1.39,5,5,0,0,1,.56,1,1,1,0,0,0,1.62.22c.41-.42.95-.76,1.26-1.15a12.25,12.25,0,0,0,.83-1.25,11.91,11.91,0,0,0,1.29-1.89c.69-1,1.22-2.18,1.88-3.28a9.86,9.86,0,0,1,1.44-2.55c.17-.15.19-.46.31-.81a1.42,1.42,0,0,0,.64.05,1.75,1.75,0,0,1,.15,1.84,28.24,28.24,0,0,1-1.41,3.06,35.66,35.66,0,0,1-1.85,3.38c-.39.51-.54,1.17-1,1.49-.58.56-.8,1.35-1.51,1.84-.54.34-1.15.81-1.68,1.15a1,1,0,0,1-.91.12,2.56,2.56,0,0,1-1.91-.55c-.54-.49-1.37-.91-1.2-1.88,0-.1-.05-.2-.07-.3a6.6,6.6,0,0,1-.45-1.34,20.53,20.53,0,0,0-1.53,2.57A20.69,20.69,0,0,1,349,45a10.75,10.75,0,0,1-1,.76c-.09,0-.17.15-.24.27a1.77,1.77,0,0,1-1.61.62,1.62,1.62,0,0,1-1.2-1.05c-.15-.18-.32-.44-.62-.79.39-.93-.91-1.95.07-3a.09.09,0,0,0-.12-.07c-.08-.29,0-.51-.08-.71-.22-.88.46-1.47.68-2.25a7.46,7.46,0,0,1,1.34-2.52,9,9,0,0,1,1.42-1.4,1.72,1.72,0,0,1,1.66-.42C349.42,34.24,349.52,34.21,349.69,34.07Zm-1.39,2.74a7.47,7.47,0,0,0-1.87,3.28c-.12.76-.49,1.37-.29,2.15a.74.74,0,0,1-.1.44,1.82,1.82,0,0,0,.4,2c.27-.17.56-.24.83-.42.49-.54,1.05-1.2,1.54-1.73a1.11,1.11,0,0,1,0-.64c.91-.54,1.08-1.52,1.37-2.42a2.23,2.23,0,0,0,.43-1.16c.15-.66-.66-1.8-1.4-2.24C348.91,36.34,348.52,36.44,348.3,36.81Z"/><path d="M366.2,45.91c.07-.12-.08-.29,0-.51a2.88,2.88,0,0,1,0-.93c-.13-.07-.35-.12-.47-.19a1.46,1.46,0,0,0-.05-.2c0-.41,0-.93-.05-1.44,0-.32-.08-.71-.05-1a12.62,12.62,0,0,1-.08-2c-.05-1-.1-2.06-.08-3.21-.05-.19,0-.51-.1-.81a10.23,10.23,0,0,1,.14-3.57,17.12,17.12,0,0,0-.06-2.27c.1-.44.2-.88.29-1.32a3.73,3.73,0,0,1,.12-1.18,16.23,16.23,0,0,0,.07-2.2c0-.09,0-.09.08-.12a4.08,4.08,0,0,0,.14-1.49,9.44,9.44,0,0,1,.34-2,7.73,7.73,0,0,0,.14-1.49c.17-1,.24-1.93.41-2.91a4.12,4.12,0,0,0,.24-1.93,4.73,4.73,0,0,0-.13-1.74,4.08,4.08,0,0,1-.08-2.37,6.43,6.43,0,0,0,.12-1.59,17.17,17.17,0,0,1-2,.62,8.27,8.27,0,0,1-2.63.66c-.42,0-.84.42-1.32.54-1.15.4-2.33.69-3.5,1a5.32,5.32,0,0,0-.61.46,3.76,3.76,0,0,0-.95.35,13.2,13.2,0,0,0-2,.62l-2.18.85c-.36.2-.75.3-1.12.5a5.55,5.55,0,0,0-1.29.64c-.18.14-.2.46-.32.8-.78.2-1.54.5-2.32.69-.1,0-.29.08-.27.18a2,2,0,0,1-1.2.61A11.4,11.4,0,0,0,343,19.34a.72.72,0,0,1-.9.12,1.65,1.65,0,0,1-.27-.66,6.14,6.14,0,0,1,.05-1.05c.8-.52,1.53-.91,2.17-1.28a3.24,3.24,0,0,1,.83-.42c.73-.39,1.34-.85,2-1.12,1-.47,2.05-.94,3.11-1.31,1.39-.66,2.68-1.3,4-1.84l2.37-.91a.55.55,0,0,1,.42,0,1.69,1.69,0,0,0,1.15-.4,11.63,11.63,0,0,1,1.83-.56,10.82,10.82,0,0,0,1.76-.45,10.69,10.69,0,0,0,1.71-.64c.1,0,.27-.17.39-.1a3.21,3.21,0,0,0,1.66-.42,13.92,13.92,0,0,1,2-.51,11,11,0,0,0,.34-1.13c.1-.44.1-.86.2-1.3a16.24,16.24,0,0,1,.65-1.93c.08-.12,0-.32.07-.54.42-.83.71-1.73,1.12-2.57.13-.34.42-.41.79-.2s.71.34,1.07.56c-.07.54-.21,1.2-.24,1.94a.93.93,0,0,1,0,.73c-.22,1.2-.43,2.4-.75,3.62A20.62,20.62,0,0,0,373,6.45c1.12-.49,2.42-.3,3.69-.62l1.47-.37a1.66,1.66,0,0,1,1.47.88,1.07,1.07,0,0,1-.29.91c-.15.24-.52.44-.76.71-.35-.13-.71-.34-1.05-.47a2.77,2.77,0,0,0-1.25,0c-.49.12-1,.34-1.35.44-.58.15-1.22.1-1.8.25a13.76,13.76,0,0,0-2.06.52,1.43,1.43,0,0,0-.8.93,21.29,21.29,0,0,0-.63,2.86c0,.51-.27,1-.1,1.69.13.49-.31,1.22-.46,1.88a.22.22,0,0,0-.14.25c.34.95-.17,1.81-.36,2.69a3.1,3.1,0,0,0-.07.95,24.92,24.92,0,0,1-.19,2.55,18.43,18.43,0,0,1-.29,2.15c-.15,1.07-.27,2.25-.41,3.33-.07.53-.17,1,.13,1.32,0,.09.07.29,0,.31-.68.59.18,1.52-.29,2.16.25,1-.12,2-.06,3a13.16,13.16,0,0,1-.17,2.22.9.9,0,0,1,0,.32c.39.73,0,1.44,0,2.08l0,.1c.51,1.22.22,2.54.64,3.79.15.58,0,1.24.15,1.83a3.3,3.3,0,0,0,.35,1,18.86,18.86,0,0,0,.78,2.3,4.15,4.15,0,0,0,.67,1.39,2,2,0,0,0,1.56.86,8.7,8.7,0,0,0,1.49-1.94,15.24,15.24,0,0,1,.9-1.37,16,16,0,0,0,.81-1.76c.39-.93.78-1.86,1.14-2.89l.36-1,.44-.73c.29-.49.66-1.11.93-1.69a5.54,5.54,0,0,0,.12-.76,3.24,3.24,0,0,1,.19-.88c.34-.71.78-1.45,1.1-2.26.19-.46.29-.9.48-1.37.34-1.12.71-2.15,1.14-3.3a7.61,7.61,0,0,1,.76-1.54c.32,0,.61-.05.93,0,.61.78.15,1.42,0,2.08a3.1,3.1,0,0,1-.51,1.69c-.26.59-.43,1.15-.7,1.74-.32.8-.54,1.59-.85,2.39s-.59,1.4-.85,2c-.13.34-.37.61-.42.83a12.47,12.47,0,0,1-1.58,4c-.22.37-.19.88-.39,1.34a16.29,16.29,0,0,0-.85,1.57,10.89,10.89,0,0,1-1,2,13.78,13.78,0,0,0-.78,1.44A3.68,3.68,0,0,1,372.42,52c-1.41,1-2.76.59-3.74-.83-.47-.61-1.08-1-1.37-1.73-.13-.49-.35-.95-.47-1.44-.08-.29-.12-.49-.17-.68s0-.1.07-.13C366.15,47,366.13,46.45,366.2,45.91Z"/><path d="M396.91,24.64a2.15,2.15,0,0,1-.61,2.13c-.31.39-.36,1-.68,1.42-.26.59-.68,1-.95,1.59-.22.37-.31.81-.53,1.18a24.69,24.69,0,0,0-1.58,2.79c-.86,1.15-1.74,2.2-2.59,3.36-.15.24-.19.46-.37.61a3.93,3.93,0,0,1-2.51,2,1.89,1.89,0,0,1-1,0c-.54-.08-1.05,0-1.4-.59,0-.09-.34-.12-.46-.19-.25-.56-.4-1.15-.62-1.61l.1,0a2.79,2.79,0,0,1-.37-.63,3.23,3.23,0,0,1-.17-1.93c.07-.13-.1-.4-.15-.59a11.1,11.1,0,0,1,.31-2.06,5.4,5.4,0,0,0-.15-2.25A2.2,2.2,0,0,1,383.4,28a4.69,4.69,0,0,0,.65-1.52c.12-.76.71-.9,1.3-1.05.26-.18.8.31.83.83a3.93,3.93,0,0,1-.27,1l-.36,1c-.19,1.29-.39,2.59-.58,3.89a7.87,7.87,0,0,0,.08,1.54,18.31,18.31,0,0,0,.17,2.35,9.38,9.38,0,0,0,.33,1.68c.41,0,.92,0,1.44-.05a.77.77,0,0,0,.34-.29c.07-.13.17-.15.24-.27,1.05-.37,1.44-1.3,2.05-2.19a3.82,3.82,0,0,1,.54-.75c.22-.37.27-.59.41-.84.51-.85.93-1.69,1.47-2.45a5.34,5.34,0,0,1,.82-1.24,10.5,10.5,0,0,0,.88-1.89,4.65,4.65,0,0,1,.51-.86c.15-.24.32-.39.46-.63a8.66,8.66,0,0,1,.93-1.69c.07-.13.46-.22.68-.18S396.69,24.59,396.91,24.64ZM384,21.15c-.08-.71.17-1,.78-1s1.1.24,1.08,1A1,1,0,0,1,385,22,.92.92,0,0,1,384,21.15Z"/><path d="M417.5,22.56a18.84,18.84,0,0,0-1.27,1.57,4.29,4.29,0,0,1-1.2,1c-.19.05-.22.37-.46.64s-.49.54-.88.64l-2.25.56c-.41,0-1,.25-1.37-.06a9.05,9.05,0,0,0-2.13-.61c-.09,0-.09,0-.12-.08-.39-.31-.81-.73-1.2-1.05-.15-.16-.49-.29-.37-.63,0-.1-.27-.24-.41-.41-.15.24-.32.39-.27.58a32,32,0,0,1-1.14,5.39c-.24.68-.34,1.54-.65,2.35A7.12,7.12,0,0,1,403,34a8.91,8.91,0,0,1-.92,1.69c-.47.63-1,1.39-2,1.23a10.11,10.11,0,0,1-1.1-.25.53.53,0,0,0-.17-.27,1.18,1.18,0,0,1-.54-.9l-.6-2.35c-.07-.29.05-.63,0-.93a6.35,6.35,0,0,1-.23-1.29c0-.1,0-.2.05-.22a3.39,3.39,0,0,0,.07-1.79.77.77,0,0,1,0-.41c0-.42-.12-.91-.15-1.42a10.22,10.22,0,0,0,0-1.66,9.68,9.68,0,0,1,.09-1.69c-.83-.41-1.27-.93-.89-1.86-.34-.53,0-.93.05-1.46s.27-1.42.41-2.08.61-.89,1.32-.55a.83.83,0,0,1,.44.1c.12.08.47.2.52.39a11.81,11.81,0,0,1,0,2c0,.52.12.91.12,1.32,0,1,0,2,0,2.91s0,1.67,0,2.4,0,1.34,0,2.08c0,.1,0,.22,0,.32s-.15.24-.12.34c.73.85.18,1.93.4,2.81a4.53,4.53,0,0,1,.12,1.74c.05.19.3.34.47.61a3.61,3.61,0,0,0,1.27-2.4c0-.1.07-.13,0-.22.44-1.15.9-2.21,1.24-3.33a33.47,33.47,0,0,0,.88-3.55,7.91,7.91,0,0,0,.29-1.74c.09-.44.19-.88.29-1.32a4.35,4.35,0,0,0,.11-1.59c-.17-.68.32-.81.61-.88a1.45,1.45,0,0,1,.91.29,3.93,3.93,0,0,1,1.13,2.42,1.2,1.2,0,0,0,.59.68,12,12,0,0,0,1.74,1.54c.14.17.56.17.88.19s.56.17.85.1a4.32,4.32,0,0,0,2.57-1c1.34-.86,2-2.16,2.93-3.23.39-.52.73-.81,1.27-.32a2,2,0,0,0,.56.16C418.11,21.27,418.18,22,417.5,22.56Z"/><path d="M423.89,15.34a2.69,2.69,0,0,1,1.51,1.07c.2.36.54.49.86.09a.9.9,0,0,1,1.25.42c.29.75.78,1.46.4,2.39-.13.35.22.88.24,1.4a5.76,5.76,0,0,1,.25,1.39,4.58,4.58,0,0,1,.57,1,1,1,0,0,0,1.61.22c.42-.42.95-.76,1.27-1.16a11.17,11.17,0,0,0,.83-1.24A12.62,12.62,0,0,0,434,19c.68-1,1.22-2.18,1.87-3.28a10.48,10.48,0,0,1,1.44-2.55c.17-.15.2-.46.32-.81a1.38,1.38,0,0,0,.63,0,1.71,1.71,0,0,1,.16,1.83A25.91,25.91,0,0,1,437,17.34a32.34,32.34,0,0,1-1.85,3.37c-.39.52-.53,1.18-1,1.5-.59.56-.81,1.35-1.51,1.84-.54.34-1.15.81-1.69,1.15a.93.93,0,0,1-.9.12,2.53,2.53,0,0,1-1.91-.55c-.54-.49-1.37-.91-1.2-1.88,0-.1-.05-.2-.08-.3a7.19,7.19,0,0,1-.44-1.34,20.54,20.54,0,0,0-1.54,2.57,19.54,19.54,0,0,1-1.68,2.4,10.51,10.51,0,0,1-.95.76c-.1,0-.17.15-.24.27a1.78,1.78,0,0,1-1.62.62,1.65,1.65,0,0,1-1.2-1.05c-.14-.18-.32-.44-.61-.79.39-.93-.91-2,.07-3a.1.1,0,0,0-.13-.07c-.07-.29,0-.51-.07-.71-.22-.88.46-1.47.68-2.25a7.28,7.28,0,0,1,1.34-2.52,9.34,9.34,0,0,1,1.41-1.4,1.73,1.73,0,0,1,1.66-.42C423.62,15.51,423.71,15.48,423.89,15.34Zm-1.39,2.74a7.59,7.59,0,0,0-1.88,3.28,5.12,5.12,0,0,0-.29,2.15.73.73,0,0,1-.09.44,1.84,1.84,0,0,0,.39,2c.27-.17.56-.24.83-.42.49-.54,1.05-1.2,1.54-1.73a1,1,0,0,1,.05-.64c.9-.54,1.07-1.52,1.36-2.43a2.27,2.27,0,0,0,.44-1.15c.14-.66-.66-1.8-1.4-2.24C423.11,17.61,422.72,17.71,422.5,18.08Z"/></g></g></svg>